<svg width="1650" height="59" viewBox="0 0 1650 59" fill="none" xmlns="http://www.w3.org/2000/svg">
<rect x="1.84247" y="0.364746" width="326.315" height="58.0245" rx="15" fill="black"/>
<rect x="9.91138" y="8.5498" width="16.1683" height="41.6543" rx="8.08414" fill="#C6FF4D"/>
<rect x="34.1638" y="8.5498" width="16.1683" height="41.6543" rx="8.08414" fill="#C6FF4D"/>
<rect x="58.416" y="8.5498" width="16.1683" height="41.6543" rx="8.08414" fill="#C6FF4D"/>
<rect x="82.6682" y="8.5498" width="16.1683" height="41.6543" rx="8.08414" fill="#C6FF4D"/>
<rect x="106.921" y="8.5498" width="16.1683" height="41.6543" rx="8.08414" fill="#C6FF4D"/>
<rect x="131.173" y="8.5498" width="16.1683" height="41.6543" rx="8.08414" fill="#FB9333"/>
<rect opacity="0.5" x="3.92841" y="2.18457" width="322.143" height="54.1411" rx="14" fill="url(#paint0_linear)"/>
<rect x="331.843" y="0.364746" width="326.315" height="58.0245" rx="15" fill="black"/>
<rect x="339.911" y="8.5498" width="16.1683" height="41.6543" rx="8.08414" fill="#C6FF4D"/>
<rect x="364.164" y="8.5498" width="16.1683" height="41.6543" rx="8.08414" fill="#C6FF4D"/>
<rect x="388.416" y="8.5498" width="16.1683" height="41.6543" rx="8.08414" fill="#C6FF4D"/>
<rect x="412.668" y="8.5498" width="16.1683" height="41.6543" rx="8.08414" fill="#C6FF4D"/>
<rect x="436.921" y="8.5498" width="16.1683" height="41.6543" rx="8.08414" fill="#C6FF4D"/>
<rect x="461.173" y="8.5498" width="16.1683" height="41.6543" rx="8.08414" fill="#FB9333"/>
<rect x="485.396" y="8.5498" width="16.1683" height="41.6543" rx="8.08414" fill="#FB9333"/>
<rect opacity="0.5" x="333.928" y="2.18457" width="322.143" height="54.1411" rx="14" fill="url(#paint1_linear)"/>
<rect x="661.843" y="0.243164" width="326.315" height="58.0245" rx="15" fill="black"/>
<rect x="669.911" y="8.42822" width="16.1683" height="41.6543" rx="8.08414" fill="#C6FF4D"/>
<rect x="694.164" y="8.42822" width="16.1683" height="41.6543" rx="8.08414" fill="#C6FF4D"/>
<rect x="718.416" y="8.42822" width="16.1683" height="41.6543" rx="8.08414" fill="#C6FF4D"/>
<rect x="742.668" y="8.42822" width="16.1683" height="41.6543" rx="8.08414" fill="#C6FF4D"/>
<rect x="766.921" y="8.42822" width="16.1683" height="41.6543" rx="8.08414" fill="#C6FF4D"/>
<rect x="791.173" y="8.42822" width="16.1683" height="41.6543" rx="8.08414" fill="#FB9333"/>
<rect x="839.618" y="8.30615" width="16.1683" height="41.6543" rx="8.08414" fill="#FB9333"/>
<rect x="815.396" y="8.42822" width="16.1683" height="41.6543" rx="8.08414" fill="#FB9333"/>
<rect opacity="0.5" x="663.928" y="2.06348" width="322.143" height="54.1411" rx="14" fill="url(#paint2_linear)"/>
<rect x="991.843" y="0.243164" width="326.315" height="58.0245" rx="15" fill="black"/>
<rect x="999.911" y="8.42822" width="16.1683" height="41.6543" rx="8.08414" fill="#C6FF4D"/>
<rect x="1024.16" y="8.42822" width="16.1683" height="41.6543" rx="8.08414" fill="#C6FF4D"/>
<rect x="1048.42" y="8.42822" width="16.1683" height="41.6543" rx="8.08414" fill="#C6FF4D"/>
<rect x="1072.67" y="8.42822" width="16.1683" height="41.6543" rx="8.08414" fill="#C6FF4D"/>
<rect x="1096.92" y="8.42822" width="16.1683" height="41.6543" rx="8.08414" fill="#C6FF4D"/>
<rect x="1121.17" y="8.42822" width="16.1683" height="41.6543" rx="8.08414" fill="#FB9333"/>
<rect x="1169.62" y="8.30615" width="16.1683" height="41.6543" rx="8.08414" fill="#FB9333"/>
<rect x="1145.4" y="8.42822" width="16.1683" height="41.6543" rx="8.08414" fill="#FB9333"/>
<rect x="1194.37" y="8.30615" width="16.1683" height="41.6543" rx="8.08414" fill="#FF5050"/>
<rect opacity="0.5" x="993.928" y="2.06348" width="322.143" height="54.1411" rx="14" fill="url(#paint3_linear)"/>
<rect x="1321.84" width="326.315" height="58.0245" rx="15" fill="black"/>
<rect x="1329.91" y="8.18506" width="16.1683" height="41.6543" rx="8.08414" fill="#C6FF4D"/>
<rect x="1354.16" y="8.18506" width="16.1683" height="41.6543" rx="8.08414" fill="#C6FF4D"/>
<rect x="1378.42" y="8.18506" width="16.1683" height="41.6543" rx="8.08414" fill="#C6FF4D"/>
<rect x="1402.67" y="8.18506" width="16.1683" height="41.6543" rx="8.08414" fill="#C6FF4D"/>
<rect x="1426.92" y="8.18506" width="16.1683" height="41.6543" rx="8.08414" fill="#C6FF4D"/>
<rect x="1451.17" y="8.18506" width="16.1683" height="41.6543" rx="8.08414" fill="#FB9333"/>
<rect x="1499.62" y="8.06299" width="16.1683" height="41.6543" rx="8.08414" fill="#FB9333"/>
<rect x="1475.4" y="8.18506" width="16.1683" height="41.6543" rx="8.08414" fill="#FB9333"/>
<rect x="1524.37" y="8.06299" width="16.1683" height="41.6543" rx="8.08414" fill="#FF5050"/>
<rect x="1548.6" y="8.06299" width="16.1683" height="41.6543" rx="8.08414" fill="#FF5050"/>
<rect opacity="0.5" x="1323.93" y="1.82031" width="322.143" height="54.1411" rx="14" fill="url(#paint4_linear)"/>
<defs>
<linearGradient id="paint0_linear" x1="165" y1="2.18457" x2="165" y2="56.3257" gradientUnits="userSpaceOnUse">
<stop offset="0.0002" stop-color="#ECE2DB" stop-opacity="0.844024"/>
<stop offset="0.0003" stop-color="#9A9A9A" stop-opacity="0.74"/>
<stop offset="0.583333" stop-color="#F8F8F8" stop-opacity="0.0268866"/>
</linearGradient>
<linearGradient id="paint1_linear" x1="495" y1="2.18457" x2="495" y2="56.3257" gradientUnits="userSpaceOnUse">
<stop offset="0.0002" stop-color="#ECE2DB" stop-opacity="0.844024"/>
<stop offset="0.0003" stop-color="#9A9A9A" stop-opacity="0.74"/>
<stop offset="0.583333" stop-color="#F8F8F8" stop-opacity="0.0268866"/>
</linearGradient>
<linearGradient id="paint2_linear" x1="825" y1="2.06348" x2="825" y2="56.2046" gradientUnits="userSpaceOnUse">
<stop offset="0.0002" stop-color="#ECE2DB" stop-opacity="0.844024"/>
<stop offset="0.0003" stop-color="#9A9A9A" stop-opacity="0.74"/>
<stop offset="0.583333" stop-color="#F8F8F8" stop-opacity="0.0268866"/>
</linearGradient>
<linearGradient id="paint3_linear" x1="1155" y1="2.06348" x2="1155" y2="56.2046" gradientUnits="userSpaceOnUse">
<stop offset="0.0002" stop-color="#ECE2DB" stop-opacity="0.844024"/>
<stop offset="0.0003" stop-color="#9A9A9A" stop-opacity="0.74"/>
<stop offset="0.583333" stop-color="#F8F8F8" stop-opacity="0.0268866"/>
</linearGradient>
<linearGradient id="paint4_linear" x1="1485" y1="1.82031" x2="1485" y2="55.9614" gradientUnits="userSpaceOnUse">
<stop offset="0.0002" stop-color="#ECE2DB" stop-opacity="0.844024"/>
<stop offset="0.0003" stop-color="#9A9A9A" stop-opacity="0.74"/>
<stop offset="0.583333" stop-color="#F8F8F8" stop-opacity="0.0268866"/>
</linearGradient>
</defs>
</svg>
