<svg width="720" height="100" viewBox="0 0 720 100" fill="none" xmlns="http://www.w3.org/2000/svg">
<path d="M113.984 19.128L109.856 15H89.696L85.568 19.128L89.696 23.256H109.664L113.984 19.128ZM88.256 44.856V24.696L84.128 20.568L80 24.696V44.856L84.128 48.984L88.256 44.856ZM113.984 50.616L109.856 46.488H89.696L85.568 50.616L89.696 54.744H109.664L113.984 50.616ZM119.456 76.344V56.184L115.328 52.056L111.2 56.184V76.344L115.328 80.472L119.456 76.344ZM88.256 76.344V56.184L84.128 52.056L80 56.184V76.344L84.128 80.472L88.256 76.344ZM113.984 81.912L109.856 77.784H89.696L85.568 81.912L89.696 86.04H109.856L113.984 81.912Z" fill="white"/>
<path d="M669.256 44.856V16.536L661 24.696V44.856L665.128 48.984L669.256 44.856ZM669.256 84.504V56.184L665.128 52.056L661 56.184V76.344L669.256 84.504ZM713.659 19.128L709.531 15H689.371L685.243 19.128L689.371 23.256H709.339L713.659 19.128ZM687.931 44.856V24.696L683.803 20.568L679.675 24.696V44.856L683.803 48.984L687.931 44.856ZM713.659 50.616L709.531 46.488H689.371L685.243 50.616L689.371 54.744H709.339L713.659 50.616ZM719.131 76.344V56.184L715.003 52.056L710.875 56.184V76.344L715.003 80.472L719.131 76.344ZM687.931 76.344V56.184L683.803 52.056L679.675 56.184V76.344L683.803 80.472L687.931 76.344ZM713.659 81.912L709.531 77.784H689.371L685.243 81.912L689.371 86.04H709.531L713.659 81.912Z" fill="white"/>
<path d="M369.237 44.5833V15L361 23.524V44.5833L365.119 48.8955L369.237 44.5833ZM369.237 86V56.4167L365.119 52.1045L361 56.4167V77.476L369.237 86ZM419 44.5833V15L410.763 23.524V44.5833L414.881 48.8955L419 44.5833ZM419 86V56.4167L414.881 52.1045L410.763 56.4167V77.476L419 86Z" fill="white"/>
<path d="M309.256 44.856V16.536L301 24.696V44.856L305.128 48.984L309.256 44.856ZM309.256 84.504V56.184L305.128 52.056L301 56.184V76.344L309.256 84.504ZM353.659 19.128L349.531 15H329.371L325.243 19.128L329.371 23.256H349.339L353.659 19.128ZM359.131 44.856V24.696L355.003 20.568L350.875 24.696V44.856L355.003 48.984L359.131 44.856ZM327.931 44.856V24.696L323.803 20.568L319.675 24.696V44.856L323.803 48.984L327.931 44.856ZM359.131 76.344V56.184L355.003 52.056L350.875 56.184V76.344L355.003 80.472L359.131 76.344ZM327.931 76.344V56.184L323.803 52.056L319.675 56.184V76.344L323.803 80.472L327.931 76.344ZM353.659 81.912L349.531 77.784H329.371L325.243 81.912L329.371 86.04H349.531L353.659 81.912Z" fill="white"/>
<path d="M549.256 44.856V16.536L541 24.696V44.856L545.128 48.984L549.256 44.856ZM549.256 84.504V56.184L545.128 52.056L541 56.184V76.344L549.256 84.504ZM599.131 44.856V19.128L595.003 15L590.875 19.128V44.856L595.003 48.984L599.131 44.856ZM567.931 44.856V19.128L563.803 15L559.675 19.128V44.856L563.803 48.984L567.931 44.856ZM593.659 50.616L589.531 46.488H569.371L565.243 50.616L569.371 54.744H589.339L593.659 50.616ZM599.131 81.912V56.184L595.003 52.056L590.875 56.184V81.912L595.003 86.04L599.131 81.912Z" fill="white"/>
<path d="M609.256 44.856V16.536L601 24.696V44.856L605.128 48.984L609.256 44.856ZM609.256 84.504V56.184L605.128 52.056L601 56.184V76.344L609.256 84.504ZM653.659 19.128L649.531 15H621.211L629.371 23.256H649.339L653.659 19.128ZM627.931 44.856V24.696L619.675 16.536V44.856L623.803 48.984L627.931 44.856ZM653.659 50.616L649.531 46.488H629.371L625.243 50.616L629.371 54.744H649.339L653.659 50.616ZM659.131 76.344V56.184L655.003 52.056L650.875 56.184V76.344L655.003 80.472L659.131 76.344ZM653.659 81.912L649.531 77.784H629.371L625.243 81.912L629.371 86.04H649.531L653.659 81.912Z" fill="white"/>
<path d="M293.984 19.128L289.856 15H269.696L265.568 19.128L269.696 23.256H289.664L293.984 19.128ZM299.456 44.856V24.696L295.328 20.568L291.2 24.696V44.856L295.328 48.984L299.456 44.856ZM268.256 44.856V24.696L264.128 20.568L260 24.696V44.856L264.128 48.984L268.256 44.856ZM293.984 50.616L289.856 46.488H269.696L265.568 50.616L269.696 54.744H289.664L293.984 50.616ZM299.456 76.344V56.184L295.328 52.056L291.2 56.184V76.344L295.328 80.472L299.456 76.344ZM293.984 81.912L289.856 77.784H269.696L265.568 81.912L269.696 86.04H289.856L293.984 81.912Z" fill="white"/>
<path d="M233.984 19.128L229.856 15H209.696L205.568 19.128L209.696 23.256H229.664L233.984 19.128ZM239.456 44.856V24.696L235.328 20.568L231.2 24.696V44.856L235.328 48.984L239.456 44.856ZM208.256 44.856V24.696L204.128 20.568L200 24.696V44.856L204.128 48.984L208.256 44.856ZM233.984 50.616L229.856 46.488H209.696L205.568 50.616L209.696 54.744H229.664L233.984 50.616ZM239.456 76.344V56.184L235.328 52.056L231.2 56.184V76.344L235.328 80.472L239.456 76.344ZM208.256 76.344V56.184L204.128 52.056L200 56.184V76.344L204.128 80.472L208.256 76.344ZM233.984 81.912L229.856 77.784H209.696L205.568 81.912L209.696 86.04H229.856L233.984 81.912Z" fill="white"/>
<path d="M169.096 23.256L177.448 15H149.128L145 19.128L149.128 23.256H169.096ZM178.888 44.856V16.536L170.632 24.696V44.856L174.76 48.984L178.888 44.856ZM178.888 84.504V56.184L174.76 52.056L170.632 56.184V76.344L178.888 84.504Z" fill="white"/>
<path d="M53.984 20.128L49.856 16H21.536L29.696 24.256H49.664L53.984 20.128ZM28.256 45.856V25.696L20 17.536V45.856L24.128 49.984L28.256 45.856ZM53.984 51.616L49.856 47.488H29.696L25.568 51.616L29.696 55.744H49.664L53.984 51.616ZM59.456 77.344V57.184L55.328 53.056L51.2 57.184V77.344L55.328 81.472L59.456 77.344ZM53.984 82.912L49.856 78.784H29.696L25.568 82.912L29.696 87.04H49.856L53.984 82.912Z" fill="white"/>
<path d="M429.256 44.856V16.536L421 24.696V44.856L425.128 48.984L429.256 44.856ZM429.256 84.504V56.184L425.128 52.056L421 56.184V76.344L429.256 84.504ZM473.659 19.128L469.531 15H449.371L445.243 19.128L449.371 23.256H469.339L473.659 19.128ZM479.131 44.856V24.696L475.003 20.568L470.875 24.696V44.856L475.003 48.984L479.131 44.856ZM473.659 50.616L469.531 46.488H449.371L445.243 50.616L449.371 54.744H469.339L473.659 50.616ZM447.931 76.344V56.184L443.803 52.056L439.675 56.184V84.504L447.931 76.344ZM473.659 81.912L469.531 77.784H449.371L441.211 86.04H469.531L473.659 81.912Z" fill="white"/>
<path d="M489.256 44.856V16.536L481 24.696V44.856L485.128 48.984L489.256 44.856ZM489.256 84.504V56.184L485.128 52.056L481 56.184V76.344L489.256 84.504ZM533.659 19.128L529.531 15H509.371L505.243 19.128L509.371 23.256H529.339L533.659 19.128ZM539.131 44.856V24.696L535.003 20.568L530.875 24.696V44.856L535.003 48.984L539.131 44.856ZM533.659 50.616L529.531 46.488H509.371L505.243 50.616L509.371 54.744H529.339L533.659 50.616ZM539.131 76.344V56.184L535.003 52.056L530.875 56.184V76.344L535.003 80.472L539.131 76.344ZM533.659 81.912L529.531 77.784H509.371L505.243 81.912L509.371 86.04H529.531L533.659 81.912Z" fill="white"/>
</svg>
