<svg width="30" height="145" viewBox="0 0 30 145" fill="none" xmlns="http://www.w3.org/2000/svg">
<g clip-path="url(#clip0)">
<path d="M0.556671 89.9719L4.0334 86.6148L4.0334 77.5309L7.34652 78.9527L7.51013 86.6148L10.9869 83.2577L10.9869 76.5435L26.0799 76.5435L26.0799 89.9719L29.5567 86.6148L29.5567 73.2259L10.9869 73.2259L7.51013 75.8721L0.55667 73.0679L0.556671 89.9719Z" fill="black"/>
<path d="M0.556671 97.7924L0.556671 104.507L29.5567 104.507L29.5567 101.149L10.9869 101.149L10.9869 87.7211L0.556671 97.7924ZM4.0334 101.149L4.0334 97.7924L7.51013 94.4353L7.51013 101.149L4.0334 101.149Z" fill="black"/>
<path d="M7.51013 137.327L0.556671 144.041L29.5567 144.041L29.5567 140.684L7.51013 140.684L10.9869 137.327L29.5567 137.327L29.5567 133.97L7.51013 133.97L10.9869 130.613L29.5567 130.613L29.5567 127.256L10.9869 127.256L0.556671 137.327L7.51013 137.327Z" fill="black"/>
<path d="M26.0799 120.62L10.9869 120.62L10.9869 110.549L7.51013 113.867L7.51013 120.62L4.0334 120.62L4.0334 113.867L0.556671 117.263L0.556671 123.938L29.5567 123.938L29.5567 107.192L26.0799 110.549L26.0799 120.62Z" fill="black"/>
<path d="M0.556671 36.2981L4.0334 32.941L4.0334 29.5839L29.5567 29.5839L29.5567 26.2268L4.0334 26.2268L4.0334 19.5126L0.556671 22.8697L0.556671 36.2981Z" fill="black"/>
<path d="M0.556671 10.113L0.556671 16.8271L29.5567 16.8271L29.5567 13.4701L10.9869 13.4701L10.9869 3.43826L29.5567 3.43826L29.5567 0.0811602L10.9869 0.081161L0.556671 10.113ZM7.51013 13.4701L4.0334 13.4701L4.0334 10.113L7.51013 6.75586L7.51013 13.4701Z" fill="black"/>
<path d="M0.556671 49.7263L29.5567 49.7263L29.5567 32.9408L10.9869 32.9408L0.556671 43.0121L0.556671 49.7263ZM26.0799 36.2979L26.0799 46.3692L4.0334 46.3692L4.0334 43.0121L10.9869 36.2979L26.0799 36.2979Z" fill="black"/>
<path d="M0.556671 69.8296L29.5567 69.8296L29.5567 66.4725L4.0334 66.4725L4.0334 63.1154L10.9869 56.4012L29.5567 56.4012L29.5567 53.0441L10.9869 53.0441L0.556671 63.1154L0.556671 69.8296Z" fill="black"/>
</g>
<defs>
<clipPath id="clip0">
<rect width="144" height="29" fill="white" transform="translate(0.556671 144.041) rotate(-90)"/>
</clipPath>
</defs>
</svg>
