<svg width="112" height="116" viewBox="0 0 112 116" fill="none" xmlns="http://www.w3.org/2000/svg">
<circle cx="56.2929" cy="55.6217" r="40.5049" transform="rotate(-120.3 56.2929 55.6217)" fill="#FB9333"/>
<g filter="url(#filter0_f)">
<path d="M56.1996 105.389C78.6996 105.389 96.9394 85.1123 96.9394 60.1001H15.4597C15.4597 85.1123 33.6996 105.389 56.1996 105.389Z" fill="#D0C3B9" fill-opacity="0.34"/>
</g>
<circle cx="56.002" cy="55.6215" r="36.7227" transform="rotate(-90 56.002 55.6215)" fill="url(#paint0_linear)"/>
<circle cx="56.2929" cy="55.6214" r="37.7629" transform="rotate(-120.3 56.2929 55.6214)" stroke="#EFEFEF" stroke-width="2"/>
<circle cx="56.293" cy="55.6214" r="28.5621" transform="rotate(-43.4771 56.293 55.6214)" fill="#FB9333"/>
<path d="M51.052 54.002L65.1489 39.2644V36.2466H62.1311L44.9544 54.002H51.052ZM62.1311 72.9563H65.1489V69.9385L51.052 55.2009H44.9544L62.1311 72.9563Z" fill="white"/>
<defs>
<filter id="filter0_f" x="5.45972" y="50.1001" width="101.48" height="65.2886" filterUnits="userSpaceOnUse" color-interpolation-filters="sRGB">
<feFlood flood-opacity="0" result="BackgroundImageFix"/>
<feBlend mode="normal" in="SourceGraphic" in2="BackgroundImageFix" result="shape"/>
<feGaussianBlur stdDeviation="5" result="effect1_foregroundBlur"/>
</filter>
<linearGradient id="paint0_linear" x1="21.6615" y1="55.6215" x2="92.7246" y2="55.6215" gradientUnits="userSpaceOnUse">
<stop offset="0.209931" stop-color="#F48E2F"/>
<stop offset="0.941689" stop-color="#FBAE66"/>
</linearGradient>
</defs>
</svg>
