<svg width="111" height="116" viewBox="0 0 111 116" fill="none" xmlns="http://www.w3.org/2000/svg">
<circle cx="55.4668" cy="55.6217" r="40.5049" transform="rotate(-120.3 55.4668 55.6217)" fill="#FB9333"/>
<g filter="url(#filter0_f)">
<path d="M55.4668 105.389C77.9668 105.389 96.2067 85.1123 96.2067 60.1001H14.727C14.727 85.1123 32.9668 105.389 55.4668 105.389Z" fill="#D0C3B9" fill-opacity="0.34"/>
</g>
<circle cx="55.1758" cy="55.6215" r="36.7227" transform="rotate(-90 55.1758 55.6215)" fill="url(#paint0_linear)"/>
<circle cx="55.4668" cy="55.6214" r="37.7629" transform="rotate(-120.3 55.4668 55.6214)" stroke="#EFEFEF" stroke-width="2"/>
<circle cx="55.4669" cy="55.6214" r="28.5621" transform="rotate(-43.4771 55.4669 55.6214)" fill="#FB9333"/>
<path d="M62.765 54.002L48.6681 39.2644V36.2466H51.6859L68.8626 54.002H62.765ZM51.6859 72.9563H48.6681V69.9385L62.765 55.2009H68.8626L51.6859 72.9563Z" fill="white"/>
<defs>
<filter id="filter0_f" x="4.72699" y="50.1001" width="101.48" height="65.2886" filterUnits="userSpaceOnUse" color-interpolation-filters="sRGB">
<feFlood flood-opacity="0" result="BackgroundImageFix"/>
<feBlend mode="normal" in="SourceGraphic" in2="BackgroundImageFix" result="shape"/>
<feGaussianBlur stdDeviation="5" result="effect1_foregroundBlur"/>
</filter>
<linearGradient id="paint0_linear" x1="20.8353" y1="55.6215" x2="91.8984" y2="55.6215" gradientUnits="userSpaceOnUse">
<stop offset="0.209931" stop-color="#F48E2F"/>
<stop offset="0.941689" stop-color="#FBAE66"/>
</linearGradient>
</defs>
</svg>
