<svg width="356" height="116" viewBox="0 0 356 116" fill="none" xmlns="http://www.w3.org/2000/svg">
<circle cx="55.4668" cy="55.6217" r="40.5049" transform="rotate(-120.3 55.4668 55.6217)" fill="#FB9333"/>
<circle cx="177.511" cy="55.6217" r="40.5049" transform="rotate(-120.3 177.511 55.6217)" fill="#FB9333"/>
<circle cx="300.293" cy="55.6217" r="40.5049" transform="rotate(-120.3 300.293 55.6217)" fill="#FB9333"/>
<g filter="url(#filter0_f)">
<path d="M55.4668 105.389C77.9668 105.389 96.2067 85.1123 96.2067 60.1001H14.727C14.727 85.1123 32.9668 105.389 55.4668 105.389Z" fill="#D0C3B9" fill-opacity="0.34"/>
</g>
<g filter="url(#filter1_f)">
<path d="M177.511 105.389C200.011 105.389 218.25 85.1123 218.25 60.1001H136.771C136.771 85.1123 155.011 105.389 177.511 105.389Z" fill="#D0C3B9" fill-opacity="0.34"/>
</g>
<g filter="url(#filter2_f)">
<path d="M300.2 105.389C322.7 105.389 340.939 85.1123 340.939 60.1001H259.46C259.46 85.1123 277.7 105.389 300.2 105.389Z" fill="#D0C3B9" fill-opacity="0.34"/>
</g>
<circle cx="55.1758" cy="55.6215" r="36.7227" transform="rotate(-90 55.1758 55.6215)" fill="url(#paint0_linear)"/>
<circle cx="177.22" cy="55.6215" r="36.7227" transform="rotate(-90 177.22 55.6215)" fill="url(#paint1_linear)"/>
<circle cx="300.002" cy="55.6215" r="36.7227" transform="rotate(-90 300.002 55.6215)" fill="url(#paint2_linear)"/>
<circle cx="55.4668" cy="55.6214" r="37.7629" transform="rotate(-120.3 55.4668 55.6214)" stroke="#EFEFEF" stroke-width="2"/>
<circle cx="177.511" cy="55.6214" r="37.7629" transform="rotate(-120.3 177.511 55.6214)" stroke="#EFEFEF" stroke-width="2"/>
<circle cx="300.293" cy="55.6214" r="37.7629" transform="rotate(-120.3 300.293 55.6214)" stroke="#EFEFEF" stroke-width="2"/>
<circle cx="55.4669" cy="55.6214" r="28.5621" transform="rotate(-43.4771 55.4669 55.6214)" fill="#FB9333"/>
<circle cx="177.511" cy="55.6214" r="28.5621" transform="rotate(-43.4771 177.511 55.6214)" fill="#FB9333"/>
<circle cx="300.293" cy="55.6214" r="28.5621" transform="rotate(-43.4771 300.293 55.6214)" fill="#FB9333"/>
<path d="M62.765 54.002L48.6681 39.2644V36.2466H51.6859L68.8626 54.002H62.765ZM51.6859 72.9563H48.6681V69.9385L62.765 55.2009H68.8626L51.6859 72.9563Z" fill="white"/>
<path d="M295.052 54.002L309.149 39.2644V36.2466H306.131L288.954 54.002H295.052ZM306.131 72.9563H309.149V69.9385L295.052 55.2009H288.954L306.131 72.9563Z" fill="white"/>
<path d="M170.188 53.7285L167.891 51.4318V36.503L170.188 34.2063L172.485 36.503V51.3399L170.188 53.7285ZM170.188 74.9963L167.891 72.6995V57.8626L170.188 55.5659L172.485 57.8626V72.6306L170.188 74.9963Z" fill="white"/>
<path d="M185.309 53.7285L183.013 51.4318V36.503L185.309 34.2063L187.606 36.503V51.3399L185.309 53.7285ZM185.309 74.9963L183.013 72.6995V57.8626L185.309 55.5659L187.606 57.8626V72.6306L185.309 74.9963Z" fill="white"/>
<defs>
<filter id="filter0_f" x="4.72699" y="50.1001" width="101.48" height="65.2886" filterUnits="userSpaceOnUse" color-interpolation-filters="sRGB">
<feFlood flood-opacity="0" result="BackgroundImageFix"/>
<feBlend mode="normal" in="SourceGraphic" in2="BackgroundImageFix" result="shape"/>
<feGaussianBlur stdDeviation="5" result="effect1_foregroundBlur"/>
</filter>
<filter id="filter1_f" x="126.771" y="50.1001" width="101.48" height="65.2886" filterUnits="userSpaceOnUse" color-interpolation-filters="sRGB">
<feFlood flood-opacity="0" result="BackgroundImageFix"/>
<feBlend mode="normal" in="SourceGraphic" in2="BackgroundImageFix" result="shape"/>
<feGaussianBlur stdDeviation="5" result="effect1_foregroundBlur"/>
</filter>
<filter id="filter2_f" x="249.46" y="50.1001" width="101.48" height="65.2886" filterUnits="userSpaceOnUse" color-interpolation-filters="sRGB">
<feFlood flood-opacity="0" result="BackgroundImageFix"/>
<feBlend mode="normal" in="SourceGraphic" in2="BackgroundImageFix" result="shape"/>
<feGaussianBlur stdDeviation="5" result="effect1_foregroundBlur"/>
</filter>
<linearGradient id="paint0_linear" x1="20.8353" y1="55.6215" x2="91.8984" y2="55.6215" gradientUnits="userSpaceOnUse">
<stop offset="0.209931" stop-color="#F48E2F"/>
<stop offset="0.941689" stop-color="#FBAE66"/>
</linearGradient>
<linearGradient id="paint1_linear" x1="142.879" y1="55.6215" x2="213.942" y2="55.6215" gradientUnits="userSpaceOnUse">
<stop offset="0.209931" stop-color="#F48E2F"/>
<stop offset="0.941689" stop-color="#FBAE66"/>
</linearGradient>
<linearGradient id="paint2_linear" x1="265.661" y1="55.6215" x2="336.725" y2="55.6215" gradientUnits="userSpaceOnUse">
<stop offset="0.209931" stop-color="#F48E2F"/>
<stop offset="0.941689" stop-color="#FBAE66"/>
</linearGradient>
</defs>
</svg>
